<svg width="81" height="45" viewBox="0 0 81 45" fill="none" xmlns="http://www.w3.org/2000/svg">
<circle cx="22.5" cy="22.5" r="22.5" fill="#4478FF" fill-opacity="0.85"/>
<path d="M19.512 13.56H27.024V15.504H22.224V21.984H25.944V23.904H22.224V33H19.512V13.56Z" fill="white"/>
<circle cx="58.5" cy="22.5" r="22.5" fill="#5D3FD4" fill-opacity="0.8"/>
<path d="M58.384 33.216C56.464 33.216 55.112 32.648 54.328 31.512C53.544 30.36 53.152 28.776 53.152 26.76V19.896C53.152 17.768 53.536 16.152 54.304 15.048C55.072 13.944 56.432 13.392 58.384 13.392C60.128 13.392 61.376 13.864 62.128 14.808C62.896 15.752 63.28 17.144 63.28 18.984V20.52H60.712V19.152C60.712 18.256 60.672 17.568 60.592 17.088C60.512 16.608 60.304 16.224 59.968 15.936C59.648 15.648 59.128 15.504 58.408 15.504C57.672 15.504 57.12 15.664 56.752 15.984C56.4 16.288 56.168 16.72 56.056 17.28C55.944 17.824 55.888 18.56 55.888 19.488V27.192C55.888 28.184 55.968 28.96 56.128 29.52C56.288 30.08 56.544 30.48 56.896 30.72C57.264 30.96 57.768 31.08 58.408 31.08C59.096 31.08 59.608 30.928 59.944 30.624C60.28 30.32 60.488 29.904 60.568 29.376C60.664 28.848 60.712 28.128 60.712 27.216V25.776H63.28V27.216C63.28 29.152 62.912 30.64 62.176 31.68C61.456 32.704 60.192 33.216 58.384 33.216Z" fill="white"/>
</svg>
